# xmcd CD database file
#
# Track frame offsets:
#	150
#	17704
#	30267
#	49908
#	69200
#	85765
#	103842
#	128920
#	147108
#	168768
#	185469
#	205430
#
# Disc length: 2969 seconds
#
# Revision: 3
# Processed by: cddbd v1.5.1PL2 Copyright (c) Steve Scherf et al.
# Submitted via: CDex 1.40Release
#
DISCID=9a0b970c
DTITLE=Rod Piazza and The Mighty Flyers - For The Chosen Who
DYEAR=2005
DGENRE=Other
TTITLE0=I'm A Love You
TTITLE1=You Can Make It If You Try
TTITLE2=Broken Hearted Blues
TTITLE3=She Made My Blood Run Cold
TTITLE4=Shoestring
TTITLE5=Ground Hog Blues
TTITLE6=Description Of A Fool
TTITLE7=Trace Of You
TTITLE8=Honey's Blues
TTITLE9=Got To Find My Baby
TTITLE10=Call Me Dangerous
TTITLE11=Blues Player
EXTD=YEAR: 2005 ID3G: 12
EXTT0=
EXTT1=
EXTT2=
EXTT3=
EXTT4=
EXTT5=
EXTT6=
EXTT7=
EXTT8=
EXTT9=
EXTT10=
EXTT11=
PLAYORDER=
